{
    "asset" : {
        "generator" : "Khronos glTF Blender I/O v3.3.32",
        "version" : "2.0"
    },
    "extensionsUsed" : [
        "KHR_materials_specular",
        "KHR_materials_ior",
        "KHR_materials_clearcoat"
    ],
    "scene" : 0,
    "scenes" : [
        {
            "name" : "Scene",
            "nodes" : [
                0,
                1,
                2,
                3,
                4
            ]
        },
        {
            "name" : "Scene.001"
        },
        {
            "name" : "Scene.002"
        }
    ],
    "nodes" : [
        {
            "mesh" : 0,
            "name" : "ParedesExternas",
            "rotation" : [
                0,
                -0.7073811292648315,
                0,
                0.7068322896957397
            ],
            "scale" : [
                15.0911283493042,
                7.724676609039307,
                15.0911283493042
            ],
            "translation" : [
                0,
                0.23223184049129486,
                0
            ]
        },
        {
            "mesh" : 1,
            "name" : "ParedesInternas",
            "rotation" : [
                0,
                0.7071068286895752,
                0,
                0.7071068286895752
            ],
            "scale" : [
                11.45413875579834,
                3.291640043258667,
                6.631737232208252
            ],
            "translation" : [
                0,
                0.5588539838790894,
                -0.27073827385902405
            ]
        },
        {
            "mesh" : 2,
            "name" : "PuertasTerciarias",
            "rotation" : [
                0.5591872930526733,
                0,
                -0.8290413618087769,
                0
            ],
            "scale" : [
                -0.3908936679363251,
                -1.567104697227478,
                -0.1712462306022644
            ],
            "translation" : [
                -5.432402610778809,
                2.077404499053955,
                -2.7061986923217773
            ]
        },
        {
            "mesh" : 3,
            "name" : "PuertasSecundarias",
            "rotation" : [
                0.7284328937530518,
                0.0025093357544392347,
                -0.685107409954071,
                0.002668024506419897
            ],
            "scale" : [
                -0.2699293792247772,
                -0.06835052371025085,
                -0.27326926589012146
            ],
            "translation" : [
                -3.0536298751831055,
                3.7631359100341797,
                6.542394638061523
            ]
        },
        {
            "mesh" : 4,
            "name" : "MainEntrance",
            "rotation" : [
                0.7071068286895752,
                0,
                0,
                0.7071068286895752
            ],
            "scale" : [
                2.035736560821533,
                0.6639245748519897,
                2.188227415084839
            ],
            "translation" : [
                0,
                3.376915693283081,
                -6.653569221496582
            ]
        }
    ],
    "materials" : [
        {
            "doubleSided" : true,
            "emissiveFactor" : [
                0.5,
                0.5,
                0.5
            ],
            "emissiveTexture" : {
                "index" : 0
            },
            "extensions" : {
                "KHR_materials_specular" : {
                    "specularColorFactor" : [
                        0.2748618905333877,
                        0.2748618905333877,
                        0.2748618905333877
                    ]
                },
                "KHR_materials_ior" : {
                    "ior" : 1.4500000476837158
                }
            },
            "name" : "Material.014",
            "pbrMetallicRoughness" : {
                "baseColorTexture" : {
                    "index" : 1
                },
                "metallicFactor" : 0,
                "roughnessFactor" : 0.8454545736312866
            }
        },
        {
            "doubleSided" : true,
            "emissiveFactor" : [
                0.5,
                0.5,
                0.5
            ],
            "emissiveTexture" : {
                "index" : 2
            },
            "extensions" : {
                "KHR_materials_specular" : {
                    "specularColorFactor" : [
                        0.2748618905333877,
                        0.2748618905333877,
                        0.2748618905333877
                    ]
                },
                "KHR_materials_ior" : {
                    "ior" : 1.4500000476837158
                }
            },
            "name" : "Material.031",
            "pbrMetallicRoughness" : {
                "baseColorTexture" : {
                    "index" : 3
                },
                "metallicFactor" : 0,
                "roughnessFactor" : 0.47272729873657227
            }
        },
        {
            "emissiveFactor" : [
                0.5,
                0.5,
                0.5
            ],
            "emissiveTexture" : {
                "index" : 4
            },
            "extensions" : {
                "KHR_materials_specular" : {
                    "specularColorFactor" : [
                        0.2748618905333877,
                        0.2748618905333877,
                        0.2748618905333877
                    ]
                },
                "KHR_materials_ior" : {
                    "ior" : 1.4500000476837158
                }
            },
            "name" : "Material.024",
            "pbrMetallicRoughness" : {
                "baseColorTexture" : {
                    "index" : 5
                },
                "metallicFactor" : 0,
                "roughnessFactor" : 0.40909093618392944
            }
        },
        {
            "doubleSided" : true,
            "emissiveFactor" : [
                0.4000000059604645,
                0.4000000059604645,
                0.4000000059604645
            ],
            "emissiveTexture" : {
                "index" : 6
            },
            "extensions" : {
                "KHR_materials_clearcoat" : {
                    "clearcoatFactor" : 0.02654867246747017,
                    "clearcoatRoughnessFactor" : 0.029999999329447746
                },
                "KHR_materials_specular" : {
                    "specularColorFactor" : [
                        0.26231828828537435,
                        0.26231828828537435,
                        0.26231828828537435
                    ]
                },
                "KHR_materials_ior" : {
                    "ior" : 1.4500000476837158
                }
            },
            "name" : "Material",
            "pbrMetallicRoughness" : {
                "baseColorTexture" : {
                    "index" : 7
                },
                "metallicFactor" : 0.02654867246747017,
                "roughnessFactor" : 0.8691271543502808
            }
        },
        {
            "doubleSided" : true,
            "emissiveFactor" : [
                0.4000000059604645,
                0.4000000059604645,
                0.4000000059604645
            ],
            "emissiveTexture" : {
                "index" : 8
            },
            "extensions" : {
                "KHR_materials_clearcoat" : {
                    "clearcoatFactor" : 0.05309734866023064,
                    "clearcoatRoughnessFactor" : 0.029999999329447746
                },
                "KHR_materials_specular" : {
                    "specularColorFactor" : [
                        0.975824134189221,
                        0.975824134189221,
                        0.975824134189221
                    ]
                },
                "KHR_materials_ior" : {
                    "ior" : 1.4500000476837158
                }
            },
            "name" : "front",
            "pbrMetallicRoughness" : {
                "baseColorTexture" : {
                    "index" : 9
                },
                "metallicFactor" : 0,
                "roughnessFactor" : 0.7515687942504883
            }
        }
    ],
    "meshes" : [
        {
            "name" : "Circle",
            "primitives" : [
                {
                    "attributes" : {
                        "POSITION" : 0,
                        "NORMAL" : 1,
                        "TEXCOORD_0" : 2
                    },
                    "indices" : 3,
                    "material" : 0
                }
            ]
        },
        {
            "name" : "Circle.005",
            "primitives" : [
                {
                    "attributes" : {
                        "POSITION" : 4,
                        "NORMAL" : 5,
                        "TEXCOORD_0" : 6
                    },
                    "indices" : 7,
                    "material" : 0
                },
                {
                    "attributes" : {
                        "POSITION" : 8,
                        "NORMAL" : 9,
                        "TEXCOORD_0" : 10
                    },
                    "indices" : 11
                }
            ]
        },
        {
            "name" : "Cube.013",
            "primitives" : [
                {
                    "attributes" : {
                        "POSITION" : 12,
                        "NORMAL" : 13,
                        "TEXCOORD_0" : 14
                    },
                    "indices" : 15,
                    "material" : 1
                }
            ]
        },
        {
            "name" : "Cube.005",
            "primitives" : [
                {
                    "attributes" : {
                        "POSITION" : 16,
                        "NORMAL" : 17,
                        "TEXCOORD_0" : 18
                    },
                    "indices" : 19,
                    "material" : 2
                }
            ]
        },
        {
            "name" : "Cylinder.001",
            "primitives" : [
                {
                    "attributes" : {
                        "POSITION" : 20,
                        "NORMAL" : 21,
                        "TEXCOORD_0" : 22
                    },
                    "indices" : 23,
                    "material" : 3
                },
                {
                    "attributes" : {
                        "POSITION" : 24,
                        "NORMAL" : 25,
                        "TEXCOORD_0" : 26
                    },
                    "indices" : 27,
                    "material" : 4
                }
            ]
        }
    ],
    "textures" : [
        {
            "sampler" : 0,
            "source" : 0
        },
        {
            "sampler" : 0,
            "source" : 0
        },
        {
            "sampler" : 0,
            "source" : 1
        },
        {
            "sampler" : 0,
            "source" : 1
        },
        {
            "sampler" : 0,
            "source" : 1
        },
        {
            "sampler" : 0,
            "source" : 1
        },
        {
            "sampler" : 0,
            "source" : 2
        },
        {
            "sampler" : 0,
            "source" : 2
        },
        {
            "sampler" : 0,
            "source" : 2
        },
        {
            "sampler" : 0,
            "source" : 2
        }
    ],
    "images" : [
        {
            "bufferView" : 4,
            "mimeType" : "image/png",
            "name" : "WALLS"
        },
        {
            "bufferView" : 17,
            "mimeType" : "image/png",
            "name" : "subArcs"
        },
        {
            "bufferView" : 26,
            "mimeType" : "image/png",
            "name" : "mainArc"
        }
    ],
    "accessors" : [
        {
            "bufferView" : 0,
            "componentType" : 5126,
            "count" : 60,
            "max" : [
                0.866025447845459,
                0.9230536818504333,
                1
            ],
            "min" : [
                -0.866025447845459,
                0,
                -1
            ],
            "type" : "VEC3"
        },
        {
            "bufferView" : 1,
            "componentType" : 5126,
            "count" : 60,
            "type" : "VEC3"
        },
        {
            "bufferView" : 2,
            "componentType" : 5126,
            "count" : 60,
            "type" : "VEC2"
        },
        {
            "bufferView" : 3,
            "componentType" : 5123,
            "count" : 108,
            "type" : "SCALAR"
        },
        {
            "bufferView" : 5,
            "componentType" : 5126,
            "count" : 164,
            "max" : [
                0.5641644597053528,
                2.0925917625427246,
                1.115269422531128
            ],
            "min" : [
                -1.159384846687317,
                0,
                -1.115269660949707
            ],
            "type" : "VEC3"
        },
        {
            "bufferView" : 6,
            "componentType" : 5126,
            "count" : 164,
            "type" : "VEC3"
        },
        {
            "bufferView" : 7,
            "componentType" : 5126,
            "count" : 164,
            "type" : "VEC2"
        },
        {
            "bufferView" : 8,
            "componentType" : 5123,
            "count" : 360,
            "type" : "SCALAR"
        },
        {
            "bufferView" : 9,
            "componentType" : 5126,
            "count" : 112,
            "max" : [
                0.5641644597053528,
                1.4599748849868774,
                0.8519424200057983
            ],
            "min" : [
                -0.8771002888679504,
                0,
                -0.8553824424743652
            ],
            "type" : "VEC3"
        },
        {
            "bufferView" : 10,
            "componentType" : 5126,
            "count" : 112,
            "type" : "VEC3"
        },
        {
            "bufferView" : 11,
            "componentType" : 5126,
            "count" : 112,
            "type" : "VEC2"
        },
        {
            "bufferView" : 12,
            "componentType" : 5123,
            "count" : 168,
            "type" : "SCALAR"
        },
        {
            "bufferView" : 13,
            "componentType" : 5126,
            "count" : 3271,
            "max" : [
                16.793254852294922,
                1.3466241359710693,
                64.24626159667969
            ],
            "min" : [
                -1.0101699829101562,
                -0.9999999403953552,
                -5.3297505378723145
            ],
            "type" : "VEC3"
        },
        {
            "bufferView" : 14,
            "componentType" : 5126,
            "count" : 3271,
            "type" : "VEC3"
        },
        {
            "bufferView" : 15,
            "componentType" : 5126,
            "count" : 3271,
            "type" : "VEC2"
        },
        {
            "bufferView" : 16,
            "componentType" : 5123,
            "count" : 5964,
            "type" : "SCALAR"
        },
        {
            "bufferView" : 18,
            "componentType" : 5126,
            "count" : 6068,
            "max" : [
                14.50717544555664,
                11.538573265075684,
                26.5799560546875
            ],
            "min" : [
                -3.848454713821411,
                -52.231895446777344,
                -2.594392776489258
            ],
            "type" : "VEC3"
        },
        {
            "bufferView" : 19,
            "componentType" : 5126,
            "count" : 6068,
            "type" : "VEC3"
        },
        {
            "bufferView" : 20,
            "componentType" : 5126,
            "count" : 6068,
            "type" : "VEC2"
        },
        {
            "bufferView" : 21,
            "componentType" : 5123,
            "count" : 10296,
            "type" : "SCALAR"
        },
        {
            "bufferView" : 22,
            "componentType" : 5126,
            "count" : 4526,
            "max" : [
                1.208133578300476,
                1.0000003576278687,
                1.4575647115707397
            ],
            "min" : [
                -1.202591061592102,
                -0.9999994039535522,
                -1.1931253671646118
            ],
            "type" : "VEC3"
        },
        {
            "bufferView" : 23,
            "componentType" : 5126,
            "count" : 4526,
            "type" : "VEC3"
        },
        {
            "bufferView" : 24,
            "componentType" : 5126,
            "count" : 4526,
            "type" : "VEC2"
        },
        {
            "bufferView" : 25,
            "componentType" : 5123,
            "count" : 7767,
            "type" : "SCALAR"
        },
        {
            "bufferView" : 27,
            "componentType" : 5126,
            "count" : 1898,
            "max" : [
                1.1340482234954834,
                1.0000003576278687,
                1.4575649499893188
            ],
            "min" : [
                -1.1554980278015137,
                -0.9999994039535522,
                -0.9999999403953552
            ],
            "type" : "VEC3"
        },
        {
            "bufferView" : 28,
            "componentType" : 5126,
            "count" : 1898,
            "type" : "VEC3"
        },
        {
            "bufferView" : 29,
            "componentType" : 5126,
            "count" : 1898,
            "type" : "VEC2"
        },
        {
            "bufferView" : 30,
            "componentType" : 5123,
            "count" : 3582,
            "type" : "SCALAR"
        }
    ],
    "bufferViews" : [
        {
            "buffer" : 0,
            "byteLength" : 720,
            "byteOffset" : 0,
            "target" : 34962
        },
        {
            "buffer" : 0,
            "byteLength" : 720,
            "byteOffset" : 720,
            "target" : 34962
        },
        {
            "buffer" : 0,
            "byteLength" : 480,
            "byteOffset" : 1440,
            "target" : 34962
        },
        {
            "buffer" : 0,
            "byteLength" : 216,
            "byteOffset" : 1920,
            "target" : 34963
        },
        {
            "buffer" : 0,
            "byteLength" : 20567,
            "byteOffset" : 2136
        },
        {
            "buffer" : 0,
            "byteLength" : 1968,
            "byteOffset" : 22704,
            "target" : 34962
        },
        {
            "buffer" : 0,
            "byteLength" : 1968,
            "byteOffset" : 24672,
            "target" : 34962
        },
        {
            "buffer" : 0,
            "byteLength" : 1312,
            "byteOffset" : 26640,
            "target" : 34962
        },
        {
            "buffer" : 0,
            "byteLength" : 720,
            "byteOffset" : 27952,
            "target" : 34963
        },
        {
            "buffer" : 0,
            "byteLength" : 1344,
            "byteOffset" : 28672,
            "target" : 34962
        },
        {
            "buffer" : 0,
            "byteLength" : 1344,
            "byteOffset" : 30016,
            "target" : 34962
        },
        {
            "buffer" : 0,
            "byteLength" : 896,
            "byteOffset" : 31360,
            "target" : 34962
        },
        {
            "buffer" : 0,
            "byteLength" : 336,
            "byteOffset" : 32256,
            "target" : 34963
        },
        {
            "buffer" : 0,
            "byteLength" : 39252,
            "byteOffset" : 32592,
            "target" : 34962
        },
        {
            "buffer" : 0,
            "byteLength" : 39252,
            "byteOffset" : 71844,
            "target" : 34962
        },
        {
            "buffer" : 0,
            "byteLength" : 26168,
            "byteOffset" : 111096,
            "target" : 34962
        },
        {
            "buffer" : 0,
            "byteLength" : 11928,
            "byteOffset" : 137264,
            "target" : 34963
        },
        {
            "buffer" : 0,
            "byteLength" : 20566,
            "byteOffset" : 149192
        },
        {
            "buffer" : 0,
            "byteLength" : 72816,
            "byteOffset" : 169760,
            "target" : 34962
        },
        {
            "buffer" : 0,
            "byteLength" : 72816,
            "byteOffset" : 242576,
            "target" : 34962
        },
        {
            "buffer" : 0,
            "byteLength" : 48544,
            "byteOffset" : 315392,
            "target" : 34962
        },
        {
            "buffer" : 0,
            "byteLength" : 20592,
            "byteOffset" : 363936,
            "target" : 34963
        },
        {
            "buffer" : 0,
            "byteLength" : 54312,
            "byteOffset" : 384528,
            "target" : 34962
        },
        {
            "buffer" : 0,
            "byteLength" : 54312,
            "byteOffset" : 438840,
            "target" : 34962
        },
        {
            "buffer" : 0,
            "byteLength" : 36208,
            "byteOffset" : 493152,
            "target" : 34962
        },
        {
            "buffer" : 0,
            "byteLength" : 15534,
            "byteOffset" : 529360,
            "target" : 34963
        },
        {
            "buffer" : 0,
            "byteLength" : 20568,
            "byteOffset" : 544896
        },
        {
            "buffer" : 0,
            "byteLength" : 22776,
            "byteOffset" : 565464,
            "target" : 34962
        },
        {
            "buffer" : 0,
            "byteLength" : 22776,
            "byteOffset" : 588240,
            "target" : 34962
        },
        {
            "buffer" : 0,
            "byteLength" : 15184,
            "byteOffset" : 611016,
            "target" : 34962
        },
        {
            "buffer" : 0,
            "byteLength" : 7164,
            "byteOffset" : 626200,
            "target" : 34963
        }
    ],
    "samplers" : [
        {
            "magFilter" : 9729,
            "minFilter" : 9987
        }
    ],
    "buffers" : [
        {
            "byteLength" : 633364,
            "uri" : "data:application/octet-stream;base64,"
        }
    ]
}
